<svg aria-hidden="true" style="position: absolute; width: 0; height: 0; overflow: hidden;" version="1.1" xmlns="http://www.w3.org/2000/svg" xmlns:xlink="http://www.w3.org/1999/xlink">
<defs>
<symbol id="MAGNIFYING-GLASS" viewBox="0 0 32 32">
<title>MAGNIFYING-GLASS</title>
<path d="M31.108 26.862c0.511 0.537 0.825 1.265 0.825 2.067 0 1.657-1.344 3.001-3.001 3.001-0.804 0-1.535-0.316-2.074-0.832l0.001 0.001-8.769-8.78c-1.753 1.056-3.87 1.68-6.132 1.68-6.645 0-12.032-5.387-12.032-12.032s5.387-12.032 12.032-12.032c6.645 0 12.032 5.387 12.032 12.032 0 2.255-0.62 4.365-1.7 6.169l0.030-0.055 8.788 8.78zM12.008 3.016c-4.963 0-8.987 4.024-8.987 8.987s4.024 8.987 8.987 8.987c4.963 0 8.987-4.024 8.987-8.987v0c-0.003-4.962-4.025-8.984-8.987-8.987h-0z"></path>
</symbol>
<symbol id="SHOPPING-CART" viewBox="0 0 40 32">
<title>SHOPPING-CART</title>
<path d="M40.020 7.073l-5.658 12.549c-0.282 0.627-0.884 1.063-1.592 1.104l-0.005 0-16.245 1.084 0.935 2.686h17.706c2.079 0 3.765 1.686 3.765 3.765s-1.685 3.765-3.765 3.765c-2.078 0-3.763-1.684-3.765-3.762v-0h-17.569c-0.001 2.078-1.686 3.762-3.765 3.762s-3.765-1.686-3.765-3.765 1.686-3.765 3.765-3.765h3.4l-7.256-20.706h-4.312c-1.040 0-1.882-0.843-1.882-1.882s0.843-1.882 1.882-1.882v0h5.658c0.817 0.006 1.51 0.525 1.775 1.251l0.004 0.013 1.095 3.133h27.859c0.003 0 0.006-0 0.009-0 1.040 0 1.883 0.843 1.885 1.882v0c-0.006 0.279-0.064 0.542-0.165 0.783l0.005-0.014zM11.75 8.184l3.468 9.941 16.177-1.079 3.993-8.862h-23.638z"></path>
</symbol>
</defs>
</svg>
